<?xml version="1.0" encoding="UTF-8"?>
<!DOCTYPE svg PUBLIC "-//W3C//DTD SVG 1.1//EN" "http://www.w3.org/Graphics/SVG/1.1/DTD/svg11.dtd">
<svg xmlns="http://www.w3.org/2000/svg" version="1.1" width="256px" height="256px" style="shape-rendering:geometricPrecision; text-rendering:geometricPrecision; image-rendering:optimizeQuality; fill-rule:evenodd; clip-rule:evenodd" xmlns:xlink="http://www.w3.org/1999/xlink">
<g><path style="opacity:0.991" fill="#dceafd" d="M 121.5,-0.5 C 122.833,-0.5 124.167,-0.5 125.5,-0.5C 159.592,7.6568 176.425,29.3235 176,64.5C 174.986,69.5551 173.819,74.5551 172.5,79.5C 177.5,79.5 182.5,79.5 187.5,79.5C 191.167,79.5 194.833,79.5 198.5,79.5C 210.735,84.7143 213.901,93.381 208,105.5C 204.775,109.021 200.942,111.354 196.5,112.5C 190.833,112.5 185.167,112.5 179.5,112.5C 167.064,78.1132 143.064,65.6132 107.5,75C 91.2655,82.7355 80.5988,95.2355 75.5,112.5C 67.16,112.666 58.8267,112.5 50.5,112C 36.9604,108.121 29.6271,99.1213 28.5,85C 29.0051,72.8503 34.6718,64.1837 45.5,59C 54.7163,57.1039 64.0496,55.9373 73.5,55.5C 77.0175,25.992 93.0175,7.32533 121.5,-0.5 Z"/></g>
<g><path style="opacity:1" fill="#bfd9fd" d="M 125.5,-0.5 C 131.5,-0.5 137.5,-0.5 143.5,-0.5C 152.193,1.51069 160.193,5.17736 167.5,10.5C 176.948,18.7094 183.948,28.7094 188.5,40.5C 192.624,53.5765 192.291,66.5765 187.5,79.5C 182.5,79.5 177.5,79.5 172.5,79.5C 173.819,74.5551 174.986,69.5551 176,64.5C 176.425,29.3235 159.592,7.6568 125.5,-0.5 Z"/></g>
<g><path style="opacity:0.975" fill="#dcebfd" d="M 181.5,-0.5 C 186.167,-0.5 190.833,-0.5 195.5,-0.5C 205.014,2.34908 210.68,8.68241 212.5,18.5C 220.682,17.681 225.349,21.3477 226.5,29.5C 226.04,35.7925 222.706,39.2925 216.5,40C 207.173,40.4998 197.839,40.6665 188.5,40.5C 183.948,28.7094 176.948,18.7094 167.5,10.5C 171.042,5.279 175.709,1.61234 181.5,-0.5 Z"/></g>
<g><path style="opacity:1" fill="#6ebff8" d="M 179.5,112.5 C 180.43,116.4 180.763,120.4 180.5,124.5C 174.833,124.5 169.167,124.5 163.5,124.5C 161.641,101.475 149.141,89.4755 126,88.5C 108.276,90.0339 96.9422,99.3672 92,116.5C 90.0296,130.255 93.8629,142.088 103.5,152C 100.349,156.648 97.016,161.148 93.5,165.5C 77.1528,151.46 71.1528,133.794 75.5,112.5C 80.5988,95.2355 91.2655,82.7355 107.5,75C 143.064,65.6132 167.064,78.1132 179.5,112.5 Z"/></g>
<g><path style="opacity:1" fill="#c0dafd" d="M 198.5,79.5 C 204.925,79.1304 211.258,79.6304 217.5,81C 225.974,87.0587 228.14,94.892 224,104.5C 221.548,107.821 218.382,110.321 214.5,112C 208.509,112.499 202.509,112.666 196.5,112.5C 200.942,111.354 204.775,109.021 208,105.5C 213.901,93.381 210.735,84.7143 198.5,79.5 Z"/></g>
<g><path style="opacity:0.994" fill="#dceafc" d="M 163.5,124.5 C 163.285,130.029 162.118,135.362 160,140.5C 157.361,144.639 154.528,148.639 151.5,152.5C 154.53,157.192 158.197,161.192 162.5,164.5C 146.116,178.007 127.783,181.173 107.5,174C 102.27,171.894 97.603,169.061 93.5,165.5C 97.016,161.148 100.349,156.648 103.5,152C 93.8629,142.088 90.0296,130.255 92,116.5C 96.9422,99.3672 108.276,90.0339 126,88.5C 149.141,89.4755 161.641,101.475 163.5,124.5 Z"/></g>
<g><path style="opacity:1" fill="#6294bb" d="M 122.5,114.5 C 120.473,115.861 118.806,117.527 117.5,119.5C 114.87,117.372 112.37,115.039 110,112.5C 108.5,107.333 110.333,105.5 115.5,107C 118.039,109.37 120.372,111.87 122.5,114.5 Z"/></g>
<g><path style="opacity:1" fill="#6fbed6" d="M 117.5,119.5 C 118.806,117.527 120.473,115.861 122.5,114.5C 131.385,111.839 136.719,115.006 138.5,124C 138.068,130.932 134.401,134.765 127.5,135.5C 118.575,133.648 115.242,128.315 117.5,119.5 Z"/></g>
<g><path style="opacity:1" fill="#dc6872" d="M 163.5,124.5 C 169.167,124.5 174.833,124.5 180.5,124.5C 181.138,136.25 177.805,146.583 170.5,155.5C 169.094,155.973 168.427,156.973 168.5,158.5C 166.833,160.833 164.833,162.833 162.5,164.5C 158.197,161.192 154.53,157.192 151.5,152.5C 154.528,148.639 157.361,144.639 160,140.5C 162.118,135.362 163.285,130.029 163.5,124.5 Z"/></g>
<g><path style="opacity:0.012" fill="#b57db0" d="M 170.5,155.5 C 170.573,157.027 169.906,158.027 168.5,158.5C 168.427,156.973 169.094,155.973 170.5,155.5 Z"/></g>
<g><path style="opacity:0.939" fill="#5d91b9" d="M 58.5,255.5 C 56.5,255.5 54.5,255.5 52.5,255.5C 48.7424,252.443 44.7424,249.61 40.5,247C 35.2712,243.435 35.2712,240.268 40.5,237.5C 44.5893,238.413 48.0893,240.413 51,243.5C 51.3333,219.167 51.6667,194.833 52,170.5C 54.3333,167.833 56.6667,167.833 59,170.5C 59.3333,194.833 59.6667,219.167 60,243.5C 63.2031,239.312 67.3697,237.479 72.5,238C 75.2652,240.966 74.9318,243.633 71.5,246C 66.9845,249.03 62.6512,252.197 58.5,255.5 Z"/></g>
<g><path style="opacity:0.941" fill="#5c91b9" d="M 202.5,255.5 C 200.5,255.5 198.5,255.5 196.5,255.5C 192.349,252.197 188.015,249.03 183.5,246C 179.172,242.16 179.672,239.326 185,237.5C 188.819,238.644 192.152,240.644 195,243.5C 195.333,219.167 195.667,194.833 196,170.5C 198.333,167.833 200.667,167.833 203,170.5C 203.333,194.833 203.667,219.167 204,243.5C 206.911,240.413 210.411,238.413 214.5,237.5C 219.729,240.268 219.729,243.435 214.5,247C 210.258,249.61 206.258,252.443 202.5,255.5 Z"/></g>
<g><path style="opacity:0.942" fill="#5c91b9" d="M 130.5,255.5 C 128.5,255.5 126.5,255.5 124.5,255.5C 120.349,252.197 116.015,249.03 111.5,246C 107.276,242.435 107.61,239.602 112.5,237.5C 116.589,238.413 120.089,240.413 123,243.5C 123.333,229.5 123.667,215.5 124,201.5C 126.333,198.833 128.667,198.833 131,201.5C 131.333,215.5 131.667,229.5 132,243.5C 134.911,240.413 138.411,238.413 142.5,237.5C 147.729,240.268 147.729,243.435 142.5,247C 138.258,249.61 134.258,252.443 130.5,255.5 Z"/></g>
</svg>
